<?xml version="1.0" encoding="utf-8"?>
<!-- Generator: Adobe Illustrator 23.0.6, SVG Export Plug-In . SVG Version: 6.00 Build 0)  -->
<svg version="1.1" id="Layer_1" xmlns="http://www.w3.org/2000/svg" xmlns:xlink="http://www.w3.org/1999/xlink" x="0px" y="0px"
	 viewBox="0 0 89.4 56.6" style="enable-background:new 0 0 89.4 56.6;" xml:space="preserve">
<title>food-time</title>
<rect x="25.9" y="26.7" width="4.8" height="3.3"/>
<rect x="44.7" y="7.8" width="3.3" height="4.8"/>
<rect x="44.7" y="43.9" width="3.3" height="4.8"/>
<path d="M45.8,31.3c0.2,0.1,0.4,0.1,0.6,0.1c0.2,0,0.4,0,0.7-0.1l10.5-4.6l-1.3-3l-9,3.9l-6.8-15.4l-3,1.3l7.4,17
	C45,30.9,45.4,31.1,45.8,31.3z"/>
<path d="M46.4,0C30.8,0,18.1,12.7,18.1,28.3s12.7,28.3,28.3,28.3s28.3-12.7,28.3-28.3l0,0C74.6,12.7,62,0,46.4,0z M46.4,53.3
	c-13.8,0-25-11.2-25-25s11.2-25,25-25s25,11.2,25,25C71.3,42.1,60.2,53.3,46.4,53.3L46.4,53.3z"/>
<rect x="31.2" y="39.4" transform="matrix(0.7071 -0.7071 0.7071 0.7071 -19.2014 35.7704)" width="4.8" height="3.3"/>
<rect x="56.7" y="13.9" transform="matrix(0.7071 -0.7071 0.7071 0.7071 6.3625 46.3644)" width="4.8" height="3.3"/>
<rect x="32" y="13.1" transform="matrix(0.7071 -0.7071 0.7071 0.7071 -1.1254 28.2884)" width="3.3" height="4.8"/>
<rect x="57.5" y="38.7" transform="matrix(0.7071 -0.7071 0.7071 0.7071 -11.7135 53.8523)" width="3.3" height="4.8"/>
<rect x="62" y="26.7" width="4.8" height="3.3"/>
<path d="M15.4,2.4H1.6C0.7,2.4,0,3.1,0,4v14c0,2.9,1.5,5.6,3.9,7.2v26.8c0,0.9,0.7,1.6,1.6,1.6h6c0.9,0,1.6-0.7,1.6-1.6V25.2
	c2.4-1.6,3.9-4.3,3.9-7.2V4C17,3.1,16.3,2.4,15.4,2.4z M13.8,18c0,2-1.2,3.9-3,4.7c-0.6,0.3-0.9,0.8-0.9,1.5v26.1H7.1V24.2
	c0-0.6-0.4-1.2-0.9-1.5c-1.8-0.9-3-2.7-3-4.7V5.6h2.2V16c0,0.6,0.4,1,1,1s1-0.4,1-1V5.6h2.1V16c0,0.6,0.4,1,1,1c0.6,0,1-0.4,1-1V5.6
	h2.2L13.8,18z"/>
<path d="M86,6.1c-0.4-1.1-1.1-2-2-2.7c-0.9-0.7-2-1-3.2-1h-2c-0.9,0-1.6,0.7-1.6,1.6v47.9c0,0.9,0.7,1.6,1.6,1.6h6
	c0.9,0,1.6-0.7,1.6-1.6V37.4l2.5-3.8c0.2-0.2,0.3-0.5,0.3-0.8l0.1-2.7l0,0C89.7,22,88.6,13.8,86,6.1z M86.1,30L86,32.2L83.5,36
	c-0.2,0.3-0.3,0.6-0.3,0.9v13.4h-2.8V5.6h0.4c0.5,0,0.9,0.1,1.3,0.4c0.4,0.3,0.7,0.7,0.8,1.1C85.4,14.5,86.4,22.2,86.1,30L86.1,30z"
	/>
</svg>
